<svg width="524" height="226" viewBox="0 0 524 226" fill="none" xmlns="http://www.w3.org/2000/svg">
<g clip-path="url(#clip0)">
<path d="M29.3271 225.59C19.801 225.59 12.5628 223.26 7.52937 218.56C2.49592 213.901 0 206.33 0 195.888C0 188.692 1.12317 182.91 3.3695 178.5C5.61583 174.091 8.94373 170.888 13.3116 168.891C17.6795 166.894 23.0041 165.896 29.3271 165.896C35.6085 165.896 40.9748 166.894 45.3426 168.891C49.7105 170.888 53.0384 174.091 55.2847 178.5C57.5311 182.91 58.6542 188.692 58.6542 195.888C58.6542 206.33 56.1167 213.859 51.0833 218.56C46.0082 223.219 38.77 225.59 29.3271 225.59ZM29.3271 211.197C33.6118 211.197 36.6901 209.99 38.6452 207.536C40.5588 205.123 41.5572 201.213 41.5572 195.888C41.5572 190.189 40.6004 186.154 38.6452 183.783C36.7317 181.412 33.6118 180.247 29.3271 180.247C25.0424 180.247 21.9225 181.412 20.009 183.783C18.0955 186.154 17.0971 190.189 17.0971 195.888C17.0971 201.213 18.0539 205.082 20.009 207.536C21.9225 209.99 25.0424 211.197 29.3271 211.197Z" fill="#CDBE91"/>
<path d="M85.1108 224.675V166.769H114.979C119.679 166.769 123.506 167.643 126.543 169.39C129.538 171.137 131.785 173.55 133.282 176.628C134.78 179.706 135.529 183.284 135.529 187.361C135.529 191.271 134.572 194.682 132.617 197.636C130.703 200.589 128.124 202.877 124.921 204.416C125.586 204.957 126.127 205.581 126.626 206.33C127.084 207.078 127.625 208.118 128.249 209.45L134.863 224.633H117.391L111.318 210.698C110.86 209.616 110.278 208.867 109.571 208.41C108.905 207.952 107.907 207.744 106.659 207.744H101.917V224.633H85.1108V224.675ZM101.875 194.848H110.694C113.148 194.848 115.02 194.224 116.352 192.935C117.683 191.645 118.348 189.815 118.348 187.402C118.348 182.327 115.977 179.748 111.235 179.748H101.875V194.848V194.848Z" fill="#CDBE91"/>
<path d="M159.448 224.675L181.454 166.769H199.175L221.181 224.675H203.709L198.884 212.362H181.579L176.837 224.675H159.448ZM183.035 161.153L185.905 150.962H201.421L197.844 161.153H183.035ZM183.867 200.215H196.721L190.315 183.242L183.867 200.215Z" fill="#CDBE91"/>
<path d="M273.429 225.59C263.029 225.59 255.084 223.011 249.634 217.853C244.185 212.694 241.439 205.415 241.439 196.013C241.439 186.321 244.102 178.875 249.468 173.675C254.834 168.475 262.78 165.896 273.346 165.896C276.923 165.896 280.085 166.145 282.872 166.686C285.659 167.227 288.321 167.976 290.9 168.932V183.658C285.784 181.37 280.334 180.247 274.51 180.247C269.103 180.247 265.109 181.495 262.488 183.991C259.868 186.487 258.578 190.481 258.578 195.972C258.578 201.379 259.951 205.248 262.738 207.619C265.483 209.99 269.477 211.155 274.718 211.155C277.589 211.155 280.334 210.906 283.038 210.365C285.742 209.824 288.446 208.992 291.108 207.827V222.678C288.571 223.593 285.867 224.3 283.038 224.8C280.209 225.299 277.006 225.59 273.429 225.59Z" fill="#CDBE91"/>
<path d="M344.354 225.59C338.988 225.59 334.288 224.716 330.211 222.928C326.134 221.18 322.931 218.56 320.643 215.107C318.314 211.654 317.149 207.411 317.149 202.378V166.769H333.913V200.547C333.913 207.619 337.407 211.155 344.354 211.155C347.682 211.155 350.22 210.282 352.009 208.534C353.797 206.787 354.671 204.125 354.671 200.547V166.769H371.477V202.378C371.477 207.411 370.312 211.654 368.024 215.107C365.736 218.56 362.575 221.18 358.498 222.928C354.421 224.675 349.721 225.59 344.354 225.59Z" fill="#CDBE91"/>
<path d="M399.598 224.675V166.769H416.362V211.696H442.195V224.633H399.598V224.675Z" fill="#CDBE91"/>
<path d="M493.86 225.59C484.334 225.59 477.096 223.26 472.063 218.56C467.029 213.901 464.533 206.33 464.533 195.888C464.533 188.692 465.656 182.91 467.903 178.5C470.149 174.091 473.477 170.888 477.845 168.891C482.213 166.894 487.537 165.896 493.86 165.896C500.142 165.896 505.508 166.894 509.876 168.891C514.244 170.888 517.572 174.091 519.818 178.5C522.064 182.91 523.187 188.692 523.187 195.888C523.187 206.33 520.65 213.859 515.617 218.56C510.541 223.219 503.303 225.59 493.86 225.59ZM493.86 211.197C498.145 211.197 501.223 209.99 503.178 207.536C505.092 205.123 506.09 201.213 506.09 195.888C506.09 190.189 505.134 186.154 503.178 183.783C501.265 181.412 498.145 180.247 493.86 180.247C489.576 180.247 486.456 181.412 484.542 183.783C482.629 186.154 481.63 190.189 481.63 195.888C481.63 201.213 482.587 205.082 484.542 207.536C486.456 209.99 489.576 211.197 493.86 211.197Z" fill="#CDBE91"/>
<path d="M235.99 122.799C244.268 122.176 252.837 121.843 261.573 121.843C270.309 121.843 278.878 122.176 287.156 122.799C293.853 116.185 298.013 106.992 298.013 96.8419C298.013 76.7081 281.707 60.4014 261.573 60.4014C241.439 60.4014 225.132 76.7081 225.132 96.8419C225.132 106.992 229.292 116.185 235.99 122.799Z" fill="#CDBE91"/>
<path d="M148.008 145.304C160.28 138.399 176.337 132.7 194.973 128.623C190.356 118.972 187.776 108.198 187.776 96.8003C187.776 56.0335 220.847 22.9625 261.614 22.9625C302.381 22.9625 335.452 56.0335 335.452 96.8003C335.452 108.198 332.873 118.972 328.255 128.623C348.847 133.116 366.277 139.647 378.964 147.509C392.858 134.406 401.636 119.638 401.636 104.787C401.594 59.819 321.6 0 261.573 0C201.546 0 121.551 51.8736 121.551 96.8419C121.551 113.024 131.951 130.079 148.008 145.304Z" fill="#CDBE91"/>
</g>
<defs>
<clipPath id="clip0">
<rect width="523.187" height="225.59" fill="white"/>
</clipPath>
</defs>
</svg>
