<svg width="515" height="226" viewBox="0 0 515 226" fill="none" xmlns="http://www.w3.org/2000/svg">
<path d="M29.3266 225.586C19.8006 225.586 12.5626 223.256 7.52923 218.556C2.49588 213.897 0 206.326 0 195.885C0 188.688 1.12314 182.906 3.36943 178.497C5.61572 174.087 8.94356 170.884 13.3113 168.888C17.6791 166.891 23.0037 165.893 29.3266 165.893C35.6079 165.893 40.974 166.891 45.3418 168.888C49.7096 170.884 53.0374 174.087 55.2837 178.497C57.53 182.906 58.6531 188.688 58.6531 195.885C58.6531 206.326 56.1157 213.855 51.0823 218.556C46.0073 223.215 38.7693 225.586 29.3266 225.586ZM29.3266 211.193C33.6112 211.193 36.6894 209.987 38.6445 207.532C40.558 205.12 41.5564 201.209 41.5564 195.885C41.5564 190.186 40.5996 186.151 38.6445 183.78C36.731 181.409 33.6112 180.244 29.3266 180.244C25.042 180.244 21.9221 181.409 20.0086 183.78C18.0951 186.151 17.0968 190.186 17.0968 195.885C17.0968 201.209 18.0535 205.078 20.0086 207.532C21.9221 209.987 25.042 211.193 29.3266 211.193Z" fill="#CDBE91"/>
<path d="M85.1089 224.671V166.766H114.976C119.677 166.766 123.504 167.64 126.54 169.387C129.536 171.134 131.782 173.547 133.279 176.625C134.777 179.703 135.526 183.281 135.526 187.357C135.526 191.267 134.569 194.678 132.614 197.632C130.7 200.585 128.121 202.873 124.918 204.412C125.584 204.953 126.124 205.577 126.624 206.326C127.081 207.075 127.622 208.115 128.246 209.446L134.86 224.629H117.389L111.316 210.694C110.858 209.612 110.276 208.863 109.568 208.406C108.903 207.948 107.905 207.74 106.657 207.74H101.914V224.629H85.1089V224.671ZM101.873 194.845H110.692C113.146 194.845 115.018 194.221 116.349 192.931C117.68 191.642 118.346 189.812 118.346 187.399C118.346 182.324 115.975 179.745 111.232 179.745H101.873V194.845Z" fill="#CDBE91"/>
<path d="M159.446 224.671L181.451 166.766H199.172L221.177 224.671H203.706L198.881 212.358H181.576L176.834 224.671H159.446ZM183.864 200.211H196.718L190.311 183.239L183.864 200.211Z" fill="#CDBE91"/>
<path d="M273.423 225.586C263.023 225.586 255.078 223.007 249.629 217.849C244.18 212.69 241.434 205.411 241.434 196.01C241.434 186.317 244.096 178.871 249.462 173.671C254.829 168.472 262.774 165.893 273.34 165.893C276.917 165.893 280.079 166.142 282.866 166.683C285.653 167.224 288.315 167.973 290.894 168.929V183.655C285.777 181.367 280.328 180.244 274.504 180.244C269.097 180.244 265.103 181.492 262.483 183.988C259.862 186.484 258.572 190.477 258.572 195.968C258.572 201.376 259.945 205.244 262.732 207.615C265.478 209.987 269.471 211.151 274.712 211.151C277.583 211.151 280.328 210.902 283.032 210.361C285.736 209.82 288.44 208.988 291.102 207.823V222.674C288.565 223.589 285.861 224.296 283.032 224.795C280.203 225.295 277 225.586 273.423 225.586Z" fill="#CDBE91"/>
<path d="M344.348 225.586C338.982 225.586 334.281 224.712 330.205 222.923C326.128 221.176 322.925 218.556 320.637 215.103C318.308 211.65 317.143 207.407 317.143 202.374V166.766H333.907V200.544C333.907 207.615 337.401 211.151 344.348 211.151C347.676 211.151 350.213 210.278 352.002 208.531C353.791 206.783 354.664 204.121 354.664 200.544V166.766H371.47V202.374C371.47 207.407 370.305 211.65 368.017 215.103C365.729 218.556 362.568 221.176 358.491 222.923C354.415 224.671 349.714 225.586 344.348 225.586Z" fill="#CDBE91"/>
<path d="M399.59 224.671V166.766H416.354V211.692H442.187V224.629H399.59V224.671Z" fill="#CDBE91"/>
<path d="M485.532 225.586C476.006 225.586 468.768 223.256 463.734 218.556C458.701 213.897 456.205 206.326 456.205 195.885C456.205 188.688 457.328 182.906 459.575 178.497C461.821 174.087 465.149 170.884 469.516 168.888C473.884 166.891 479.209 165.893 485.532 165.893C491.813 165.893 497.179 166.891 501.547 168.888C505.915 170.884 509.242 174.087 511.489 178.497C513.735 182.906 514.858 188.688 514.858 195.885C514.858 206.326 512.321 213.855 507.287 218.556C502.212 223.215 494.974 225.586 485.532 225.586ZM485.532 211.193C489.816 211.193 492.894 209.987 494.85 207.532C496.763 205.12 497.761 201.209 497.761 195.885C497.761 190.186 496.805 186.151 494.85 183.78C492.936 181.409 489.816 180.244 485.532 180.244C481.247 180.244 478.127 181.409 476.214 183.78C474.3 186.151 473.302 190.186 473.302 195.885C473.302 201.209 474.259 205.078 476.214 207.532C478.127 209.987 481.247 211.193 485.532 211.193Z" fill="#CDBE91"/>
<path d="M232.075 122.797C240.353 122.173 248.922 121.84 257.658 121.84C266.393 121.84 274.962 122.173 283.24 122.797C289.938 116.183 294.097 106.99 294.097 96.8401C294.097 76.7067 277.791 60.4003 257.658 60.4003C237.524 60.4003 221.218 76.7067 221.218 96.8401C221.218 106.99 225.378 116.183 232.075 122.797Z" fill="#CDBE91"/>
<path d="M144.054 145.302C156.325 138.396 172.382 132.697 191.018 128.621C186.401 118.97 183.822 108.196 183.822 96.7984C183.822 56.0325 216.892 22.9621 257.658 22.9621C298.424 22.9621 331.494 56.0325 331.494 96.7984C331.494 108.196 328.915 118.97 324.298 128.621C344.889 133.113 362.318 139.644 375.006 147.506C388.899 134.403 397.677 119.636 397.677 104.785C397.677 59.8179 317.642 0 257.658 0C197.674 0 117.639 51.8727 117.639 96.84C117.639 113.022 127.997 130.077 144.054 145.302Z" fill="#CDBE91"/>
</svg>
